<svg id="visual" viewBox="0 0 900 600" width="900" height="600" xmlns="http://www.w3.org/2000/svg" xmlns:xlink="http://www.w3.org/1999/xlink" version="1.1"><rect x="0" y="0" width="900" height="600" fill="#003366"></rect><defs><linearGradient id="grad1_0" x1="33.3%" y1="0%" x2="100%" y2="100%"><stop offset="20%" stop-color="#ffffff" stop-opacity="1"></stop><stop offset="80%" stop-color="#ffffff" stop-opacity="1"></stop></linearGradient></defs><defs><linearGradient id="grad1_1" x1="33.3%" y1="0%" x2="100%" y2="100%"><stop offset="20%" stop-color="#ffffff" stop-opacity="1"></stop><stop offset="80%" stop-color="#8892b0" stop-opacity="1"></stop></linearGradient></defs><defs><linearGradient id="grad1_2" x1="33.3%" y1="0%" x2="100%" y2="100%"><stop offset="20%" stop-color="#003366" stop-opacity="1"></stop><stop offset="80%" stop-color="#8892b0" stop-opacity="1"></stop></linearGradient></defs><defs><linearGradient id="grad2_0" x1="0%" y1="0%" x2="66.7%" y2="100%"><stop offset="20%" stop-color="#ffffff" stop-opacity="1"></stop><stop offset="80%" stop-color="#ffffff" stop-opacity="1"></stop></linearGradient></defs><defs><linearGradient id="grad2_1" x1="0%" y1="0%" x2="66.7%" y2="100%"><stop offset="20%" stop-color="#8892b0" stop-opacity="1"></stop><stop offset="80%" stop-color="#ffffff" stop-opacity="1"></stop></linearGradient></defs><defs><linearGradient id="grad2_2" x1="0%" y1="0%" x2="66.7%" y2="100%"><stop offset="20%" stop-color="#8892b0" stop-opacity="1"></stop><stop offset="80%" stop-color="#003366" stop-opacity="1"></stop></linearGradient></defs><g transform="translate(900, 0)"><path d="M0 297.5C-53.5 290.5 -107 283.6 -148.7 257.6C-190.5 231.6 -220.5 186.6 -243.4 140.5C-266.2 94.4 -281.8 47.2 -297.5 0L0 0Z" fill="#4e608b"></path><path d="M0 198.3C-35.7 193.7 -71.3 189.1 -99.2 171.7C-127 154.4 -147 124.4 -162.2 93.7C-177.5 62.9 -187.9 31.5 -198.3 0L0 0Z" fill="#c3c7d7"></path><path d="M0 99.2C-17.8 96.8 -35.7 94.5 -49.6 85.9C-63.5 77.2 -73.5 62.2 -81.1 46.8C-88.7 31.5 -93.9 15.7 -99.2 0L0 0Z" fill="#ffffff"></path></g><g transform="translate(0, 600)"><path d="M0 -297.5C48.5 -284.1 97.1 -270.8 143 -247.7C188.9 -224.6 232.3 -191.6 257.6 -148.7C282.9 -105.8 290.2 -52.9 297.5 0L0 0Z" fill="#4e608b"></path><path d="M0 -198.3C32.4 -189.4 64.7 -180.5 95.3 -165.1C126 -149.7 154.9 -127.8 171.7 -99.2C188.6 -70.5 193.5 -35.3 198.3 0L0 0Z" fill="#c3c7d7"></path><path d="M0 -99.2C16.2 -94.7 32.4 -90.3 47.7 -82.6C63 -74.9 77.4 -63.9 85.9 -49.6C94.3 -35.3 96.7 -17.6 99.2 0L0 0Z" fill="#ffffff"></path></g></svg>