<svg id="visual" viewBox="0 0 900 600" width="900" height="600" xmlns="http://www.w3.org/2000/svg" xmlns:xlink="http://www.w3.org/1999/xlink" version="1.1"><rect x="0" y="0" width="900" height="600" fill="#003366"></rect><path d="M0 322L75 322C150 322 300 322 450 322C600 322 750 322 825 322L900 322L900 601L825 601C750 601 600 601 450 601C300 601 150 601 75 601L0 601Z" fill="#ffffff"></path><path d="M0 345L75 345C150 345 300 345 450 345C600 345 750 345 825 345L900 345L900 601L825 601C750 601 600 601 450 601C300 601 150 601 75 601L0 601Z" fill="#ffffff"></path><path d="M0 368L75 368C150 368 300 368 450 368C600 368 750 368 825 368L900 368L900 601L825 601C750 601 600 601 450 601C300 601 150 601 75 601L0 601Z" fill="#ffffff"></path><path d="M0 391L75 391C150 391 300 391 450 391C600 391 750 391 825 391L900 391L900 601L825 601C750 601 600 601 450 601C300 601 150 601 75 601L0 601Z" fill="#ffffff"></path><path d="M0 414L75 414C150 414 300 414 450 414C600 414 750 414 825 414L900 414L900 601L825 601C750 601 600 601 450 601C300 601 150 601 75 601L0 601Z" fill="#ffffff"></path><path d="M0 437L75 437C150 437 300 437 450 437C600 437 750 437 825 437L900 437L900 601L825 601C750 601 600 601 450 601C300 601 150 601 75 601L0 601Z" fill="#ffffff"></path><path d="M0 461L75 461C150 461 300 461 450 461C600 461 750 461 825 461L900 461L900 601L825 601C750 601 600 601 450 601C300 601 150 601 75 601L0 601Z" fill="#ffffff"></path><path d="M0 484L75 484C150 484 300 484 450 484C600 484 750 484 825 484L900 484L900 601L825 601C750 601 600 601 450 601C300 601 150 601 75 601L0 601Z" fill="#ffffff"></path><path d="M0 507L75 507C150 507 300 507 450 507C600 507 750 507 825 507L900 507L900 601L825 601C750 601 600 601 450 601C300 601 150 601 75 601L0 601Z" fill="#ffffff"></path><path d="M0 530L75 530C150 530 300 530 450 530C600 530 750 530 825 530L900 530L900 601L825 601C750 601 600 601 450 601C300 601 150 601 75 601L0 601Z" fill="#ffffff"></path><path d="M0 553L75 553C150 553 300 553 450 553C600 553 750 553 825 553L900 553L900 601L825 601C750 601 600 601 450 601C300 601 150 601 75 601L0 601Z" fill="#ffffff"></path><path d="M0 576L75 576C150 576 300 576 450 576C600 576 750 576 825 576L900 576L900 601L825 601C750 601 600 601 450 601C300 601 150 601 75 601L0 601Z" fill="#ffffff"></path></svg>